<svg width="110" height="83" viewBox="0 0 110 83" fill="none" xmlns="http://www.w3.org/2000/svg">
<path d="M110 39.3994V43.0877L109.893 43.6789C109.715 45.2911 109.588 46.9032 109.34 48.4775C108.495 53.5859 106.664 58.4811 103.95 62.8905C99.9587 69.517 94.1566 74.8648 87.2273 78.3038C83.1942 80.3296 78.8373 81.6326 74.3542 82.1537C73.3505 82.2774 72.3502 82.3874 71.3637 82.494H32.7102C32.5143 82.4596 32.3356 82.4046 32.1362 82.3874C28.2603 82.153 24.4579 81.2251 20.9097 79.6478C13.1205 76.1761 7.32165 70.5697 3.52677 62.8562C1.85859 59.439 0.775671 55.7661 0.323115 51.9906L0 49.2338V45.652C0.0343739 45.4561 0.0893722 45.2567 0.106559 45.0608C0.302491 41.6406 1.00028 38.2926 2.22056 35.0889C5.49639 26.4782 11.2265 20.0847 19.3525 15.9323C23.5219 13.8198 28.0926 12.6176 32.7618 12.4056C35.0717 12.299 37.3816 12.4056 39.6538 12.7287C39.7734 12.7425 39.8947 12.7304 40.0092 12.693C40.1237 12.6556 40.2288 12.5939 40.3172 12.5121C43.5654 9.12156 47.3751 6.3178 51.5781 4.22456C55.6336 2.18478 60.0147 0.870215 64.5233 0.340302C65.5992 0.216556 66.6717 0.106559 67.7269 0H71.02C71.2365 0.0343739 71.4668 0.0721853 71.6662 0.0893723C73.3127 0.285304 74.942 0.412487 76.5714 0.697791C81.5659 1.55714 86.3645 3.39958 90.644 6.122C97.2346 10.2318 102.514 16.1386 105.861 23.1474C107.865 27.2654 109.154 31.7065 109.673 36.2542L109.997 39.4063L110 39.3994ZM48.4844 15.568C48.5566 15.6573 48.5738 15.7123 48.6082 15.7123C50.8631 16.857 53.0287 18.1838 55.0705 19.6859C55.1942 19.7753 55.5173 19.7409 55.6789 19.6516C61.2647 16.0354 67.3523 14.8014 73.8696 15.9633C80.2597 17.1285 85.4708 20.3666 89.4444 25.5605C93.9371 31.4315 95.6558 38.076 94.4217 45.4492C93.5796 50.3922 91.6271 54.847 88.3169 58.556C82.2671 65.3414 74.6911 68.1532 65.7779 66.9707C60.2987 66.2351 55.5551 63.8186 51.6331 59.79C46.6007 54.6339 41.534 49.495 36.4879 44.3389C35.8073 43.6411 35.0752 43.1049 34.1058 42.9777C33.2942 42.8654 32.4681 43.0194 31.7516 43.4167C31.035 43.8141 30.4668 44.4332 30.1322 45.1811C29.486 46.5423 29.5788 48.0994 30.9915 49.5122C36.6117 55.1323 42.1802 60.8075 47.8038 66.4311C48.7697 67.397 49.8078 68.2941 50.9009 69.0985C55.0017 72.1234 59.6388 73.8077 64.6505 74.4883C68.5897 75.0074 72.4912 74.9008 76.3582 74.0036C83.7521 72.3193 89.8741 68.4901 94.6899 62.564C98.6317 57.7521 101.133 51.9239 101.905 45.7517C102.402 42.1499 102.305 38.4911 101.62 34.9205C100.492 29.101 98.0757 23.8933 94.1914 19.4522C86.7804 10.9825 77.4513 7.20478 66.352 8.04694C62.1093 8.40534 57.9876 9.64267 54.2489 11.6803C52.1955 12.7586 50.2679 14.0613 48.5016 15.5645L48.4844 15.568ZM45.7826 74.6499C45.6211 74.5055 45.4767 74.3646 45.3186 74.2202C43.0258 72.0168 40.7159 69.8169 38.4438 67.5791C38.2592 67.3745 38.0323 67.2126 37.7789 67.1046C37.5254 66.9965 37.2514 66.945 36.976 66.9535C34.6661 67.0085 32.3734 67.0257 30.1012 66.5067C18.8232 63.9114 12.2681 51.4337 16.4239 40.4581C19.6997 31.8096 28.7779 26.547 37.7288 28.1591C41.7403 28.8947 45.267 30.6306 48.1647 33.6555C51.6915 37.361 55.3076 40.9428 58.8894 44.6139C59.6938 45.4389 60.6253 45.8308 61.7528 45.6692C63.1862 45.4526 64.348 44.7549 64.867 43.3043C65.3861 41.8709 65.1352 40.5303 64.0799 39.4372C60.3366 35.5873 56.686 31.6309 52.8018 27.9426C45.2464 20.7825 36.3504 18.6513 26.5023 21.6934C13.2718 25.7942 5.52045 39.6847 8.54536 53.3999C11.3021 65.9154 22.0612 74.6705 34.6317 74.6877H45.1777C45.3392 74.6877 45.518 74.6705 45.7861 74.6533L45.7826 74.6499Z" fill="black"/>
</svg>
