<svg width="32" height="20" viewBox="0 0 32 20" fill="none" xmlns="http://www.w3.org/2000/svg">
<path d="M9.25002 0.00500488C10.188 0.00500488 11.036 0.0830049 11.813 0.255005C12.579 0.427005 13.24 0.693005 13.792 1.068C14.339 1.443 14.766 1.933 15.073 2.563C15.37 3.188 15.526 3.964 15.526 4.87C15.526 5.854 15.297 6.683 14.849 7.349C14.396 8.016 13.734 8.547 12.844 8.974C14.052 9.323 14.948 9.932 15.542 10.802C16.141 11.682 16.427 12.734 16.427 13.948C16.427 14.948 16.255 15.802 15.88 16.521C15.52 17.2395 14.9887 17.8583 14.333 18.323C13.692 18.787 12.932 19.12 12.109 19.344C11.2786 19.5682 10.4222 19.6822 9.56202 19.683H-0.000976562V0.0160046H9.24902L9.25002 0.00500488ZM22.589 16.219C23.172 16.792 24.016 17.078 25.115 17.078C25.901 17.078 26.579 16.88 27.151 16.479C27.719 16.094 28.057 15.666 28.193 15.229H31.641C31.105 16.932 30.245 18.161 29.11 18.896C27.975 19.641 26.6 20 25.006 20C23.886 20 22.891 19.828 21.975 19.469C21.1125 19.129 20.3315 18.6107 19.683 17.948C19.063 17.297 18.584 16.51 18.245 15.589C17.906 14.668 17.745 13.657 17.745 12.563C17.745 11.49 17.927 10.511 18.287 9.589C18.6219 8.70369 19.1282 7.8932 19.777 7.20401C20.438 6.52201 21.194 6.011 22.095 5.61C22.991 5.209 23.96 5.032 25.053 5.032C26.267 5.032 27.308 5.251 28.225 5.73C29.0964 6.17355 29.8539 6.81169 30.439 7.59501C31.028 8.37601 31.439 9.277 31.694 10.293C31.949 11.293 32.027 12.345 31.975 13.465H21.72C21.72 14.585 22.095 15.642 22.668 16.215L22.559 16.257L22.589 16.219ZM8.93202 16.286C9.35402 16.286 9.76002 16.244 10.14 16.161C10.5003 16.0903 10.8446 15.9544 11.156 15.76C11.437 15.583 11.677 15.322 11.854 14.984C12.026 14.666 12.104 14.224 12.104 13.703C12.104 12.703 11.812 11.984 11.25 11.547C10.677 11.12 9.93202 10.906 9.00002 10.906H4.31802V16.307H8.93302V16.265L8.93202 16.286ZM27.078 8.755C26.604 8.239 25.823 7.96301 24.864 7.96301C24.244 7.96301 23.729 8.062 23.312 8.281C22.9289 8.46807 22.5911 8.73628 22.322 9.06701C22.0823 9.36156 21.9051 9.70179 21.801 10.067C21.7081 10.3757 21.6487 10.6936 21.624 11.015H27.973C27.879 10.015 27.53 9.28101 27.067 8.76V8.776L27.078 8.755ZM8.69302 7.932C9.45902 7.932 10.094 7.75501 10.594 7.385C11.094 7.026 11.334 6.421 11.334 5.599C11.334 5.141 11.24 4.766 11.094 4.474C10.9319 4.1947 10.7027 3.96028 10.427 3.792C10.1293 3.61962 9.80262 3.50304 9.46302 3.448C9.09387 3.37817 8.71871 3.34501 8.34302 3.349H4.30702V7.932H8.69302ZM20.823 1.323H28.781V3.26H20.823V1.307V1.323Z" fill="white"/>
</svg>
