<svg width="62" height="62" viewBox="0 0 62 62" fill="none" xmlns="http://www.w3.org/2000/svg">
<circle cx="31" cy="31" r="31" fill="#0075FF" fill-opacity="0.1"/>
<path d="M24.3785 38.295C23.9774 38.2956 23.5902 38.1486 23.2905 37.8821L15 30.5124L23.7509 22.733C24.0771 22.454 24.4998 22.3141 24.928 22.3435C25.3563 22.3728 25.7559 22.569 26.041 22.8899C26.3261 23.2109 26.4738 23.6308 26.4524 24.0596C26.4311 24.4883 26.2423 24.8915 25.9268 25.1825L19.9317 30.5124L25.4664 35.431C25.715 35.6516 25.8907 35.9427 25.9701 36.2655C26.0494 36.5883 26.0287 36.9276 25.9106 37.2384C25.7926 37.5491 25.5828 37.8166 25.3091 38.0054C25.0355 38.1941 24.7109 38.2951 24.3785 38.295ZM39.0344 38.2917L47.7853 30.5124L39.4948 23.1426C39.17 22.8541 38.7438 22.7064 38.3101 22.7321C37.8764 22.7577 37.4706 22.9546 37.1821 23.2795C36.8936 23.6043 36.7459 24.0304 36.7715 24.4641C36.7972 24.8978 36.9941 25.3036 37.3189 25.5921L42.8536 30.5124L36.8585 35.8406C36.5335 36.1291 36.3364 36.535 36.3106 36.9688C36.2847 37.4027 36.4323 37.8291 36.7209 38.1541C37.0094 38.4791 37.4153 38.6762 37.8491 38.702C38.283 38.7279 38.7093 38.5803 39.0344 38.2917ZM31.3697 40.6134L34.6466 20.952C34.6885 20.7372 34.6869 20.5161 34.6419 20.3018C34.597 20.0876 34.5095 19.8845 34.3847 19.7046C34.26 19.5247 34.1004 19.3717 33.9155 19.2545C33.7305 19.1373 33.524 19.0584 33.3081 19.0223C33.0921 18.9863 32.8712 18.9939 32.6582 19.0447C32.4453 19.0955 32.2447 19.1885 32.0683 19.3181C31.8918 19.4478 31.7432 19.6115 31.6311 19.7995C31.519 19.9875 31.4457 20.1962 31.4156 20.413L28.1387 40.0744C28.0968 40.2892 28.0984 40.5103 28.1434 40.7246C28.1883 40.9388 28.2758 41.1419 28.4006 41.3218C28.5254 41.5017 28.6849 41.6547 28.8698 41.7719C29.0548 41.8891 29.2613 41.968 29.4772 42.0041C29.6932 42.0401 29.9141 42.0325 30.1271 41.9817C30.34 41.9309 30.5406 41.8379 30.7171 41.7083C30.8935 41.5786 31.0421 41.4149 31.1542 41.2269C31.2663 41.0389 31.3396 40.8302 31.3697 40.6134Z" fill="#001FFF"/>
<path d="M24.3785 38.295C23.9774 38.2956 23.5902 38.1486 23.2905 37.8821L15 30.5124L23.7509 22.733C24.0771 22.454 24.4998 22.3141 24.928 22.3435C25.3563 22.3728 25.7559 22.569 26.041 22.8899C26.3261 23.2109 26.4738 23.6308 26.4524 24.0596C26.4311 24.4883 26.2423 24.8915 25.9268 25.1825L19.9317 30.5124L25.4664 35.431C25.715 35.6516 25.8907 35.9427 25.9701 36.2655C26.0494 36.5883 26.0287 36.9276 25.9106 37.2384C25.7926 37.5491 25.5828 37.8166 25.3091 38.0054C25.0355 38.1941 24.7109 38.2951 24.3785 38.295ZM39.0344 38.2917L47.7853 30.5124L39.4948 23.1426C39.17 22.8541 38.7438 22.7064 38.3101 22.7321C37.8764 22.7577 37.4706 22.9546 37.1821 23.2795C36.8936 23.6043 36.7459 24.0304 36.7715 24.4641C36.7972 24.8978 36.9941 25.3036 37.3189 25.5921L42.8536 30.5124L36.8585 35.8406C36.5335 36.1291 36.3364 36.535 36.3106 36.9688C36.2847 37.4027 36.4323 37.8291 36.7209 38.1541C37.0094 38.4791 37.4153 38.6762 37.8491 38.702C38.283 38.7279 38.7093 38.5803 39.0344 38.2917ZM31.3697 40.6134L34.6466 20.952C34.6885 20.7372 34.6869 20.5161 34.6419 20.3018C34.597 20.0876 34.5095 19.8845 34.3847 19.7046C34.26 19.5247 34.1004 19.3717 33.9155 19.2545C33.7305 19.1373 33.524 19.0584 33.3081 19.0223C33.0921 18.9863 32.8712 18.9939 32.6582 19.0447C32.4453 19.0955 32.2447 19.1885 32.0683 19.3181C31.8918 19.4478 31.7432 19.6115 31.6311 19.7995C31.519 19.9875 31.4457 20.1962 31.4156 20.413L28.1387 40.0744C28.0968 40.2892 28.0984 40.5103 28.1434 40.7246C28.1883 40.9388 28.2758 41.1419 28.4006 41.3218C28.5254 41.5017 28.6849 41.6547 28.8698 41.7719C29.0548 41.8891 29.2613 41.968 29.4772 42.0041C29.6932 42.0401 29.9141 42.0325 30.1271 41.9817C30.34 41.9309 30.5406 41.8379 30.7171 41.7083C30.8935 41.5786 31.0421 41.4149 31.1542 41.2269C31.2663 41.0389 31.3396 40.8302 31.3697 40.6134Z" fill="#0075FF"/>
</svg>
