<svg width="62" height="62" viewBox="0 0 62 62" fill="none" xmlns="http://www.w3.org/2000/svg">
<circle cx="31" cy="31" r="31" fill="#00F0A8" fill-opacity="0.1"/>
<path d="M37.5928 30.2369L40.0347 27.7945L34.2021 21.9608L31.7602 24.4032L25.3211 17.9783C24.1079 16.7649 22.1326 16.7649 20.9195 17.9783L17.9643 20.9341C16.7511 22.1475 16.7511 24.1232 17.9643 25.3366L24.3879 31.7614L17 39.1663V45H22.8325L30.236 37.5951L36.6596 44.0199C38.1371 45.4978 40.128 44.9533 41.0612 44.0199L44.0163 41.0642C45.2295 39.8508 45.2295 37.8751 44.0163 36.6617L37.5928 30.2369ZM26.612 29.5524L20.1729 23.1275L23.1125 20.1718L25.0878 22.1475L23.2525 23.9987L25.4455 26.1922L27.2964 24.3409L29.5516 26.5966L26.612 29.5524ZM38.8681 41.8265L32.4446 35.4016L35.3997 32.4459L37.655 34.7016L35.8041 36.5528L37.9972 38.7463L39.848 36.8951L41.8233 38.8707L38.8681 41.8265ZM44.5451 23.2831C44.6893 23.1392 44.8037 22.9682 44.8818 22.78C44.9598 22.5919 45 22.3901 45 22.1864C45 21.9826 44.9598 21.7809 44.8818 21.5927C44.8037 21.4045 44.6893 21.2336 44.5451 21.0896L40.9056 17.4494C40.1746 16.7183 39.1637 16.9983 38.7126 17.4494L35.8663 20.2963L41.6989 26.1299L44.5451 23.2831Z" fill="#00F0A8"/>
</svg>
