<svg width="62" height="62" viewBox="0 0 62 62" fill="none" xmlns="http://www.w3.org/2000/svg">
<circle cx="31" cy="31" r="31" fill="#FFC700" fill-opacity="0.1"/>
<path d="M19.0163 17L17.2563 18.6919L19.875 21.2116L21.6325 19.5198L19.015 17H19.0163ZM41.985 17L39.3663 19.5198L41.125 21.2116L43.7425 18.6931L41.9838 17H41.985ZM30.5 17.7509C30.0875 17.7557 29.67 17.7786 29.25 17.8279C29.2375 17.8279 29.225 17.8255 29.2125 17.8279C24.1425 18.3874 20.1075 22.3307 19.4063 27.1897C18.8463 31.1006 20.5212 34.6467 23.3125 36.9307C24.4543 37.8687 25.2265 39.1559 25.5 40.5767V47.7967H28.35C28.785 48.5151 29.5788 49 30.5 49C31.4213 49 32.215 48.5151 32.65 47.7967H35.5V42.9834H35.6175V41.5538C35.6175 39.7898 36.57 38.0112 38.1175 36.6286C40.1875 34.6335 41.75 31.7997 41.75 28.5447C41.75 22.6003 36.6675 17.6955 30.5 17.7509ZM30.5 20.1575C35.3313 20.0925 39.25 23.8999 39.25 28.5447C39.25 31.0645 38.0375 33.2834 36.3588 34.8982L36.3988 34.9368C34.7305 36.4177 33.6517 38.4129 33.3487 40.5779H27.8812C27.6062 38.5154 26.6875 36.5191 24.9512 35.0872C22.7425 33.2822 21.4263 30.5627 21.8663 27.4918C22.4125 23.7013 25.6075 20.6533 29.5225 20.2357C29.8457 20.1924 30.1713 20.1666 30.4975 20.1587L30.5 20.1575ZM13 28.5447V30.9513H16.75V28.5447H13ZM44.25 28.5447V30.9513H48V28.5447H44.25ZM19.875 38.2844L17.2575 40.803L19.0163 42.496L21.6312 39.9763L19.875 38.2844ZM41.125 38.2844L39.3675 39.9763L41.9838 42.496L43.7425 40.803L41.125 38.2844ZM28 42.9846H33V45.3912H28V42.9846Z" fill="#FFC700"/>
</svg>
