<svg width="64" height="96" viewBox="0 0 64 96" fill="none" xmlns="http://www.w3.org/2000/svg">
<path fill-rule="evenodd" clip-rule="evenodd" d="M17.6601 0C7.87219 0 0.000254017 8.21193 0.000254017 18.2719C0.000254017 24.3878 2.91223 29.8198 7.3882 33.1357C5.08133 34.8641 3.21147 37.1088 1.9285 39.69C0.645524 42.2713 -0.0148696 45.1172 0.000254017 47.9996C0.000254017 54.1196 2.91223 59.5475 7.3882 62.8635C5.08133 64.5918 3.21147 66.8366 1.9285 69.4178C0.645524 71.999 -0.0148696 74.8449 0.000254017 77.7274C0.000254017 87.7873 7.87219 95.9992 17.6601 95.9992C27.444 95.9992 35.32 87.7873 35.32 77.7274V62.2795C38.4133 64.8586 42.3124 66.2725 46.3399 66.2755C56.1278 66.2715 63.9997 58.0595 63.9997 47.9996C63.9997 41.8797 61.0918 36.4517 56.6118 33.1357C58.9187 31.4074 60.7885 29.1627 62.0715 26.5814C63.3545 24.0002 64.0149 21.1543 63.9997 18.2719C63.9997 8.21193 56.1278 0 46.3399 0H17.6601ZM6.6362 18.2719C6.6362 11.9079 11.6042 6.81195 17.6601 6.81195H28.68V29.7318H17.6601C11.6042 29.7318 6.6362 24.6318 6.6362 18.2719ZM46.3399 29.7278H35.32V6.80795H46.3399C52.3998 6.80795 57.3638 11.9079 57.3638 18.2719C57.3638 24.6318 52.3998 29.7278 46.3399 29.7278ZM6.6402 47.9996C6.6402 41.6397 11.6082 36.5397 17.6641 36.5397H28.684V59.4595H17.6601C11.6002 59.4595 6.6402 54.3596 6.6402 47.9996ZM35.32 47.9996C35.32 41.6397 40.2879 36.5397 46.3439 36.5397C52.4038 36.5397 57.3678 41.6357 57.3678 47.9996C57.3678 54.3596 52.4038 59.4595 46.3439 59.4595C40.2879 59.4595 35.324 54.3636 35.324 47.9996H35.32ZM6.6402 77.7274C6.6402 71.3674 11.6082 66.2715 17.6641 66.2715H28.684V77.7274C28.684 84.0913 23.7241 89.1873 17.6641 89.1873C11.6082 89.1873 6.6402 84.0913 6.6402 77.7274Z" fill="black"/>
</svg>
