<svg width="73" height="98" viewBox="0 0 73 98" fill="none" xmlns="http://www.w3.org/2000/svg">
<path d="M8.43555 0H12.8237V4.33539H16.8387V0H21.2268V13.1238H16.8387V8.73161H12.8237V13.1238H8.43961L8.43555 0Z" fill="black"/>
<path d="M26.9938 4.35161H23.1329V0H35.2468V4.35161H31.3819V13.1238H26.9938V4.35161Z" fill="black"/>
<path d="M37.1692 0H41.7438L44.5584 4.61117L47.3689 0H51.9436V13.1238H47.5757V6.61867L44.5584 11.2866H44.4813L41.4599 6.62272V13.1238H37.1692V0Z" fill="black"/>
<path d="M54.1254 0H58.5176V8.78839H64.6821V13.1278H54.1254V0Z" fill="black"/>
<path fill-rule="evenodd" clip-rule="evenodd" d="M8.29767 89.5142L0 19.1301H73L64.6983 89.5061L36.4594 97.3333L8.29767 89.5142ZM25.0755 50.9864L24.2887 42.1453H57.3212L58.0918 33.5151H14.8596L17.1874 59.6207H47.1053L46.1036 70.8141L36.4757 73.4177H36.4676L26.8559 70.8222L26.2394 63.9399H17.5687L18.7772 77.4936L36.4594 82.4008L54.1701 77.4936L56.3276 53.3062L56.5385 50.9905H25.0755V50.9864Z" fill="black"/>
</svg>
