<svg width="27" height="21" viewBox="0 0 27 21" fill="none" xmlns="http://www.w3.org/2000/svg">
<path d="M25.4221 0H0.941558C0.420759 0 0 0.420759 0 0.941558V19.7727C0 20.2935 0.420759 20.7143 0.941558 20.7143H25.4221C25.9429 20.7143 26.3636 20.2935 26.3636 19.7727V0.941558C26.3636 0.420759 25.9429 0 25.4221 0ZM24.2451 3.26015V18.5958H2.11851V3.26015L1.30641 2.62754L2.46276 1.14164L3.7221 2.12145H22.6445L23.9038 1.14164L25.0602 2.62754L24.2451 3.26015ZM13.1818 9.47443L2.45982 1.1387L1.30347 2.62459L12.1667 11.0721C12.4558 11.2967 12.8114 11.4186 13.1774 11.4186C13.5434 11.4186 13.8991 11.2967 14.1881 11.0721L24.2451 3.26015L25.0572 2.62754L23.9009 1.14164L13.1818 9.47443Z" fill="white"/>
</svg>
