<svg width="84" height="88" viewBox="0 0 84 88" fill="none" xmlns="http://www.w3.org/2000/svg">
<path d="M14.4966 15.3493C17.2055 17.5575 18.2316 17.4015 23.3456 17.0595L71.5583 14.1673C72.5844 14.1673 71.7307 13.1412 71.3859 12.9688L63.3769 7.18163C61.8528 5.98315 59.8006 4.63145 55.8796 4.95706L9.20746 8.37737C7.49731 8.53333 7.15528 9.38978 7.83934 10.0738L14.4966 15.3493ZM17.3888 26.5953V77.3143C17.3888 80.0369 18.7433 81.063 21.8079 80.8906L74.7953 77.826C77.8599 77.6536 78.2156 75.7875 78.2156 73.5657V23.1887C78.2156 20.9641 77.3591 19.782 75.4793 19.9544L20.1141 23.1887C18.062 23.361 17.3916 24.3707 17.3916 26.5816L17.3888 26.5953ZM69.6922 29.3014C70.0342 30.8419 69.6922 32.366 68.1517 32.5521L65.6015 33.0665V70.5038C63.3769 71.7023 61.3412 72.3864 59.6447 72.3864C56.9084 72.3864 56.2244 71.5299 54.1859 68.9797L37.4838 42.7583V68.126L42.7703 69.3245C42.7703 69.3245 42.7703 72.3891 38.5099 72.3891L26.7523 73.0732C26.4102 72.3891 26.7523 70.6789 27.9507 70.3506L31.0153 69.4941V35.9615L26.755 35.6194C26.413 34.0789 27.2694 31.8708 29.6472 31.7011L42.2586 30.8447L59.6447 57.4081V33.9065L55.212 33.3921C54.8699 31.526 56.2244 30.1579 57.9345 29.9992L69.6922 29.3014ZM5.28916 3.77774L53.8438 0.201463C59.8006 -0.312951 61.3411 0.0290799 65.0871 2.75164L80.5934 13.6528C83.1436 15.519 84 16.0334 84 18.0719V77.8288C84 81.5774 82.6319 83.7856 77.8708 84.1276L21.4631 87.5342C17.9005 87.7066 16.1904 87.1922 14.3078 84.8117L2.89221 69.9894C0.853709 67.2668 0 65.2283 0 62.8505V9.73728C0 6.67268 1.36812 4.1225 5.28643 3.78047L5.28916 3.77774Z" fill="black"/>
</svg>
