<svg width="132" height="80" viewBox="0 0 132 80" fill="none" xmlns="http://www.w3.org/2000/svg">
<path d="M108.9 23.2439C103.95 21.5392 99.5814 18.474 96.294 14.3999C92.6709 9.86061 88.0576 6.21018 82.8069 3.72783C77.5562 1.24549 71.8073 -0.00300182 66 0.0778776C58.188 -0.475364 50.4543 1.93409 44.3388 6.82642C38.2234 11.7188 34.1751 18.735 33 26.4779C35.3144 22.6053 38.7978 19.5668 42.9488 17.7997C47.0998 16.0325 51.7044 15.6278 56.1 16.6439C61.0414 18.3982 65.4032 21.4812 68.706 25.5539C72.3489 30.0569 76.9711 33.6696 82.2206 36.1171C87.4702 38.5646 93.2089 39.7824 99 39.6779C106.812 40.2311 114.546 37.8217 120.661 32.9293C126.777 28.037 130.825 21.0208 132 13.2779C129.728 17.1968 126.255 20.2812 122.096 22.0757C117.936 23.8702 113.31 24.2798 108.9 23.2439ZM23.1 56.1119C28.0496 57.8166 32.4186 60.8818 35.706 64.9559C39.3291 69.4951 43.9424 73.1456 49.1931 75.6279C54.4438 78.1103 60.1927 79.3588 66 79.2779C73.812 79.8311 81.5457 77.4217 87.6612 72.5293C93.7766 67.637 97.8249 60.6208 99 52.8779C96.6856 56.7505 93.2022 59.789 89.0512 61.5561C84.9002 63.3232 80.2956 63.7279 75.9 62.7119C70.9586 60.9575 66.5968 57.8745 63.294 53.8019C59.6413 49.31 55.0173 45.7052 49.77 43.2588C44.5227 40.8123 38.7889 39.588 33 39.6779C25.188 39.1246 17.4542 41.5341 11.3388 46.4264C5.22342 51.3188 1.17508 58.335 0 66.0779C2.27242 62.159 5.74469 59.0746 9.90418 57.2801C14.0637 55.4856 18.6899 55.076 23.1 56.1119Z" fill="black"/>
</svg>
